<svg width="26" height="13" viewBox="0 0 26 13" xmlns="http://www.w3.org/2000/svg"><title>95B2C4C3-00BC-41B3-B2E8-C8877167069E</title><path d="M3.303 4.302a.9.9 0 0 1 .618.242.851.851 0 0 1 .023 1.227L1.533 8.208a.908.908 0 0 1-1.26.023.851.851 0 0 1-.024-1.227l2.412-2.437a.9.9 0 0 1 .642-.265zm2.765 2.921a.893.893 0 0 1 .801-.487c.131 0 .264.028.39.087.442.21.626.73.41 1.16l-1.523 3.044a.902.902 0 0 1-1.191.4.857.857 0 0 1-.411-1.16l1.524-3.044zm3.947 1.468a.884.884 0 0 1 1.015-.728.871.871 0 0 1 .747.987l-.52 3.347a.888.888 0 0 1-1.015.728.871.871 0 0 1-.747-.988l.52-3.346zm4.93-.728a.885.885 0 0 1 1.014.728l.52 3.346a.871.871 0 0 1-.747.988.888.888 0 0 1-1.014-.728l-.52-3.346a.871.871 0 0 1 .747-.988zm3.77-1.14a.909.909 0 0 1 .39-.087c.33 0 .647.179.802.487l1.523 3.044c.216.43.032.95-.41 1.16a.902.902 0 0 1-1.191-.4l-1.524-3.044a.857.857 0 0 1 .41-1.16zm6.987 1.408a.908.908 0 0 1-1.26-.023L22.03 5.771a.851.851 0 0 1 .024-1.227.9.9 0 0 1 .617-.242.9.9 0 0 1 .642.265l2.412 2.437a.851.851 0 0 1-.023 1.227zM2.519 0c1.546 1.678 5.418 5.27 10.334 5.4 3.633.093 7.166-1.7 10.531-5.333.12.136.24.274.359.415.088.104.128.23.127.354 0 .125-.04.251-.127.355-3.435 4.056-7.127 6.05-10.976 5.955-6.21-.17-10.484-5.742-10.663-5.98-.008-.01-.014-.023-.02-.034a.508.508 0 0 1-.05-.095l-.012-.034a.551.551 0 0 1-.017-.267.551.551 0 0 1 .017-.066l.012-.033a.546.546 0 0 1 .05-.096c.006-.011.012-.024.02-.035.03-.039.171-.224.415-.506z" fill="#808890" fill-rule="evenodd"/></svg>