<svg width="80" height="77" viewBox="0 0 80 77" xmlns="http://www.w3.org/2000/svg" xmlns:xlink="http://www.w3.org/1999/xlink"><title>94C78D60-2441-4815-97E3-268E9DFF0B2D</title><defs><ellipse id="a" cx="38.507" cy="38.5" rx="38.507" ry="38.5"/></defs><g fill="none" fill-rule="evenodd"><g transform="translate(65.075 63.868)"><ellipse fill="#E3E3E3" cx="7.164" cy="8.953" rx="7.164" ry="1.791"/><path d="M13.34 6.032c.062.416.029.523-.355.714a6.601 6.601 0 0 1-1.078.422c-.333.098-.617-.046-.82-.323a6.415 6.415 0 0 1-.435-.66c-.368-.664-.966-.845-1.669-.83a9.719 9.719 0 0 1-.856-.006c-.162-.01-.25-.114-.255-.299-.036-1.256-.08-2.512-.127-3.767-.005-.142.032-.24.166-.291.418-.163.838-.256 1.22-.05.544.236.907.616 1.237 1.028.257.321.486.666.744.986.427.533.697.579 1.3.251.444-.24.473-.228.547.265.129.853.255 1.706.381 2.56zM7.29.819c.053 1.68.237 8.146.237 8.146s.024.388-.35.389c-.37 0-.4-.356-.4-.356s-.117-6.74-.14-8.147c-.005-.298.057-.37.32-.377.244-.006.324.064.333.345z" fill="#FFC739"/></g><mask id="b" fill="#fff"><use xlink:href="#a"/></mask><use fill="#FFC739" xlink:href="#a"/><path d="M38.507 76.956c21.268 0 38.508-17.237 38.508-38.5-11.842 8.413-26.112 7.947-35.661 6.063C31.804 42.636 21.849 27.757 0 38.456c0 21.263 17.24 38.5 38.507 38.5z" fill="#2328AE" mask="url(#b)"/><path d="M17.654 34.744s-.503 7.699 3.341 8.92c3.844 1.22 5.673 4.06 5.673 4.06" stroke="#FFF" stroke-linecap="round" stroke-linejoin="round" stroke-dasharray="4,4" mask="url(#b)"/><path d="M38.507 76.956c21.268 0 38.508-17.237 38.508-38.5-11.842 8.413-26.112 7.947-35.661 6.063C31.804 42.636 21.849 27.757 0 38.456c0 21.263 17.24 38.5 38.507 38.5z" fill="#5B50C6" mask="url(#b)" transform="matrix(-1 0 0 1 77.015 0)"/><g mask="url(#b)"><g transform="translate(19.104 50.736)"><ellipse fill="#FFF" cx="2.587" cy="5.95" rx=".597" ry=".616"/><path d="M5.51 2.094c.146.246.153.323-.032.547a4.468 4.468 0 0 1-.552.557c-.179.151-.39.136-.587.015a4.269 4.269 0 0 1-.44-.3c-.398-.321-.812-.276-1.24-.077-.173.08-.347.161-.527.226-.102.036-.182-.005-.234-.12-.35-.786-.703-1.569-1.06-2.35C.799.502.797.431.866.361c.214-.215.447-.387.736-.36.395.004.716.147 1.026.32.242.134.472.29.714.424.4.222.578.178.863-.19.21-.272.23-.272.405.02l.9 1.518zM.439.42C.909 1.468 2.706 5.51 2.706 5.51s.116.24-.114.34c-.227.1-.338-.117-.338-.117L.046.615C-.034.428-.015.366.145.291.293.221.36.244.439.42z" fill="#FFC739"/></g></g><g mask="url(#b)"><g transform="translate(37.612 59.093)"><ellipse fill="#FFF" cx="3.881" cy="8.655" rx=".896" ry=".895"/><path d="M8.264 3.045c.22.359.231.47-.048.797-.25.292-.53.565-.827.81-.268.22-.586.197-.88.021a6.415 6.415 0 0 1-.66-.436c-.598-.467-1.219-.401-1.86-.112-.26.117-.522.235-.79.329-.154.053-.275-.007-.352-.176A447.668 447.668 0 0 0 1.258.86c-.06-.128-.064-.233.039-.333.321-.313.672-.563 1.104-.523.593.005 1.075.213 1.54.464.363.195.707.423 1.07.617.601.323.868.26 1.295-.277.315-.395.346-.395.607.03.452.734.902 1.47 1.351 2.207zM.658.611C1.363 2.136 4.06 8.017 4.06 8.017s.173.348-.172.494c-.34.145-.506-.17-.506-.17S.64 2.18.07.894C-.051.623-.023.533.217.424.439.322.54.356.657.61z" fill="#FFC739"/></g></g><ellipse fill="#FFF" mask="url(#b)" cx="50.661" cy="44.469" rx=".302" ry=".298"/><path d="M52.71 41.957c.1.16.105.211-.022.358-.114.13-.24.254-.376.363-.122.1-.266.09-.4.01a2.918 2.918 0 0 1-.3-.196c-.271-.21-.553-.18-.844-.05a4.444 4.444 0 0 1-.36.147c-.07.024-.124-.003-.16-.078-.237-.513-.479-1.025-.721-1.536-.028-.057-.03-.104.017-.149.146-.14.306-.253.502-.235.27.002.488.096.7.208.164.088.321.19.486.277.273.145.394.117.588-.124.143-.177.157-.177.276.013l.614.992zm-3.456-1.094c.32.685 1.546 3.327 1.546 3.327s.078.156-.078.222c-.155.065-.23-.077-.23-.077s-1.246-2.766-1.505-3.344c-.055-.122-.042-.162.067-.212.1-.045.147-.03.2.084z" fill="#FFC739" mask="url(#b)"/><path d="M38.601 77.299s9.787-2.096 9.787-9.164 2.048-11.08 11.31-15.187c9.26-4.108-7.626-16.095-7.626-16.095" stroke="#FFF" stroke-linecap="round" stroke-linejoin="round" stroke-dasharray="4,4" mask="url(#b)"/></g></svg>