<svg width="26" height="19" viewBox="0 0 26 19" xmlns="http://www.w3.org/2000/svg"><title>7DF99757-E685-4700-A4B8-33C192423DCD</title><path d="M3.303 8.733a.9.9 0 0 1-.642-.265L.25 6.03a.851.851 0 0 1 .024-1.227.908.908 0 0 1 1.26.023l2.411 2.437a.851.851 0 0 1-.023 1.227.9.9 0 0 1-.618.242zm2.765-2.921L4.544 2.768a.857.857 0 0 1 .41-1.16.902.902 0 0 1 1.192.4L7.669 5.05c.216.431.032.95-.41 1.16a.909.909 0 0 1-.39.088.893.893 0 0 1-.801-.487zm3.947-1.468L9.495.998a.871.871 0 0 1 .747-.988.888.888 0 0 1 1.014.728l.521 3.346a.871.871 0 0 1-.747.988.884.884 0 0 1-1.014-.728zm4.93.728a.871.871 0 0 1-.748-.988l.521-3.346A.888.888 0 0 1 15.732.01a.871.871 0 0 1 .748.988l-.52 3.346a.885.885 0 0 1-1.015.728zm3.77 1.14a.857.857 0 0 1-.41-1.16l1.524-3.044a.902.902 0 0 1 1.19-.4c.443.21.627.73.411 1.16l-1.523 3.044a.893.893 0 0 1-.802.487.909.909 0 0 1-.39-.088zm6.987-1.408a.851.851 0 0 1 .023 1.226l-2.412 2.438a.9.9 0 0 1-.642.265.9.9 0 0 1-.617-.242.851.851 0 0 1-.024-1.227l2.412-2.437a.908.908 0 0 1 1.26-.023zm-1.96 7.04c.089.104.129.23.128.354 0 .125-.04.251-.127.355-3.35 3.955-6.944 5.958-10.689 5.958-.095 0-.19-.001-.287-.004-6.21-.169-10.484-5.741-10.663-5.979-.008-.01-.014-.023-.02-.035a.48.48 0 0 1-.05-.095c-.005-.01-.008-.022-.012-.033a.551.551 0 0 1-.017-.267.551.551 0 0 1 .078-.195c.007-.011.013-.024.021-.035.18-.237 4.454-5.81 10.663-5.979 3.849-.096 7.541 1.899 10.976 5.955zm-10.87 5.338c3.264.092 6.428-1.609 9.432-5.03C19.3 8.73 16.132 7.037 12.872 7.12c-4.672.124-8.241 3.901-9.206 5.03.965 1.13 4.534 4.907 9.206 5.031zm.346-8.64c2.07 0 3.753 1.64 3.753 3.656 0 2.017-1.683 3.657-3.753 3.657-2.07 0-3.753-1.64-3.753-3.657 0-2.016 1.684-3.657 3.753-3.657z" fill="#808890" fill-rule="evenodd"/></svg>